<mxfile host="app.diagrams.net" modified="2021-12-15T15:34:13.259Z" agent="5.0 (Windows NT 10.0; Win64; x64) AppleWebKit/537.36 (KHTML, like Gecko) Chrome/96.0.4664.93 Safari/537.36 Edg/96.0.1054.53" etag="ETHiCxdN2T8Tjq6mlEgC" version="15.9.4" type="github">
  <diagram id="QKxLmqeAG67RpzEfXYhz" name="Page-1">
    <mxGraphModel dx="1730" dy="1028" grid="1" gridSize="10" guides="1" tooltips="1" connect="1" arrows="1" fold="1" page="1" pageScale="1" pageWidth="827" pageHeight="1169" math="0" shadow="0">
      <root>
        <mxCell id="0" />
        <mxCell id="1" parent="0" />
        <mxCell id="ff4JJlkgA0-0qlCMYCa7-1" value="InformationAboutTheVoter" style="shape=table;startSize=30;container=1;collapsible=1;childLayout=tableLayout;fixedRows=1;rowLines=0;fontStyle=1;align=center;resizeLast=1;" parent="1" vertex="1">
          <mxGeometry x="130" y="380" width="200" height="150" as="geometry">
            <mxRectangle x="40" y="40" width="190" height="30" as="alternateBounds" />
          </mxGeometry>
        </mxCell>
        <mxCell id="ff4JJlkgA0-0qlCMYCa7-2" value="" style="shape=partialRectangle;collapsible=0;dropTarget=0;pointerEvents=0;fillColor=none;top=0;left=0;bottom=1;right=0;points=[[0,0.5],[1,0.5]];portConstraint=eastwest;" parent="ff4JJlkgA0-0qlCMYCa7-1" vertex="1">
          <mxGeometry y="30" width="200" height="30" as="geometry" />
        </mxCell>
        <mxCell id="ff4JJlkgA0-0qlCMYCa7-3" value="PK" style="shape=partialRectangle;connectable=0;fillColor=none;top=0;left=0;bottom=0;right=0;fontStyle=1;overflow=hidden;" parent="ff4JJlkgA0-0qlCMYCa7-2" vertex="1">
          <mxGeometry width="30" height="30" as="geometry">
            <mxRectangle width="30" height="30" as="alternateBounds" />
          </mxGeometry>
        </mxCell>
        <mxCell id="ff4JJlkgA0-0qlCMYCa7-4" value="Id: int" style="shape=partialRectangle;connectable=0;fillColor=none;top=0;left=0;bottom=0;right=0;align=left;spacingLeft=6;fontStyle=5;overflow=hidden;fontSize=11;" parent="ff4JJlkgA0-0qlCMYCa7-2" vertex="1">
          <mxGeometry x="30" width="170" height="30" as="geometry">
            <mxRectangle width="170" height="30" as="alternateBounds" />
          </mxGeometry>
        </mxCell>
        <mxCell id="ff4JJlkgA0-0qlCMYCa7-5" value="" style="shape=partialRectangle;collapsible=0;dropTarget=0;pointerEvents=0;fillColor=none;top=0;left=0;bottom=0;right=0;points=[[0,0.5],[1,0.5]];portConstraint=eastwest;" parent="ff4JJlkgA0-0qlCMYCa7-1" vertex="1">
          <mxGeometry y="60" width="200" height="30" as="geometry" />
        </mxCell>
        <mxCell id="ff4JJlkgA0-0qlCMYCa7-6" value="" style="shape=partialRectangle;connectable=0;fillColor=none;top=0;left=0;bottom=0;right=0;editable=1;overflow=hidden;" parent="ff4JJlkgA0-0qlCMYCa7-5" vertex="1">
          <mxGeometry width="30" height="30" as="geometry">
            <mxRectangle width="30" height="30" as="alternateBounds" />
          </mxGeometry>
        </mxCell>
        <mxCell id="ff4JJlkgA0-0qlCMYCa7-7" value="Name:nvarchar(30)" style="shape=partialRectangle;connectable=0;fillColor=none;top=0;left=0;bottom=0;right=0;align=left;spacingLeft=6;overflow=hidden;" parent="ff4JJlkgA0-0qlCMYCa7-5" vertex="1">
          <mxGeometry x="30" width="170" height="30" as="geometry">
            <mxRectangle width="170" height="30" as="alternateBounds" />
          </mxGeometry>
        </mxCell>
        <mxCell id="ff4JJlkgA0-0qlCMYCa7-8" value="" style="shape=partialRectangle;collapsible=0;dropTarget=0;pointerEvents=0;fillColor=none;top=0;left=0;bottom=0;right=0;points=[[0,0.5],[1,0.5]];portConstraint=eastwest;" parent="ff4JJlkgA0-0qlCMYCa7-1" vertex="1">
          <mxGeometry y="90" width="200" height="30" as="geometry" />
        </mxCell>
        <mxCell id="ff4JJlkgA0-0qlCMYCa7-9" value="UK" style="shape=partialRectangle;connectable=0;fillColor=none;top=0;left=0;bottom=0;right=0;editable=1;overflow=hidden;" parent="ff4JJlkgA0-0qlCMYCa7-8" vertex="1">
          <mxGeometry width="30" height="30" as="geometry">
            <mxRectangle width="30" height="30" as="alternateBounds" />
          </mxGeometry>
        </mxCell>
        <mxCell id="ff4JJlkgA0-0qlCMYCa7-10" value="Passport series:nchar(4)" style="shape=partialRectangle;connectable=0;fillColor=none;top=0;left=0;bottom=0;right=0;align=left;spacingLeft=6;overflow=hidden;" parent="ff4JJlkgA0-0qlCMYCa7-8" vertex="1">
          <mxGeometry x="30" width="170" height="30" as="geometry">
            <mxRectangle width="170" height="30" as="alternateBounds" />
          </mxGeometry>
        </mxCell>
        <mxCell id="FJyHc08INDC4HA7UQfXm-3" value="" style="shape=partialRectangle;collapsible=0;dropTarget=0;pointerEvents=0;fillColor=none;top=0;left=0;bottom=0;right=0;points=[[0,0.5],[1,0.5]];portConstraint=eastwest;" vertex="1" parent="ff4JJlkgA0-0qlCMYCa7-1">
          <mxGeometry y="120" width="200" height="30" as="geometry" />
        </mxCell>
        <mxCell id="FJyHc08INDC4HA7UQfXm-4" value="" style="shape=partialRectangle;connectable=0;fillColor=none;top=0;left=0;bottom=0;right=0;editable=1;overflow=hidden;" vertex="1" parent="FJyHc08INDC4HA7UQfXm-3">
          <mxGeometry width="30" height="30" as="geometry">
            <mxRectangle width="30" height="30" as="alternateBounds" />
          </mxGeometry>
        </mxCell>
        <mxCell id="FJyHc08INDC4HA7UQfXm-5" value="Passport number:nchar(6)" style="shape=partialRectangle;connectable=0;fillColor=none;top=0;left=0;bottom=0;right=0;align=left;spacingLeft=6;overflow=hidden;" vertex="1" parent="FJyHc08INDC4HA7UQfXm-3">
          <mxGeometry x="30" width="170" height="30" as="geometry">
            <mxRectangle width="170" height="30" as="alternateBounds" />
          </mxGeometry>
        </mxCell>
        <mxCell id="ff4JJlkgA0-0qlCMYCa7-11" value="CandidatInformation" style="shape=table;startSize=30;container=1;collapsible=1;childLayout=tableLayout;fixedRows=1;rowLines=0;fontStyle=1;align=center;resizeLast=1;shadow=0;sketch=0;fontSize=11;strokeWidth=1;" parent="1" vertex="1">
          <mxGeometry x="1141" y="180" width="199" height="370" as="geometry">
            <mxRectangle x="320" y="230" width="160" height="30" as="alternateBounds" />
          </mxGeometry>
        </mxCell>
        <mxCell id="ff4JJlkgA0-0qlCMYCa7-12" value="" style="shape=partialRectangle;collapsible=0;dropTarget=0;pointerEvents=0;fillColor=none;top=0;left=0;bottom=1;right=0;points=[[0,0.5],[1,0.5]];portConstraint=eastwest;shadow=0;sketch=0;fontSize=11;strokeWidth=1;" parent="ff4JJlkgA0-0qlCMYCa7-11" vertex="1">
          <mxGeometry y="30" width="199" height="30" as="geometry" />
        </mxCell>
        <mxCell id="ff4JJlkgA0-0qlCMYCa7-13" value="PK" style="shape=partialRectangle;connectable=0;fillColor=none;top=0;left=0;bottom=0;right=0;fontStyle=1;overflow=hidden;shadow=0;sketch=0;fontSize=11;strokeWidth=1;" parent="ff4JJlkgA0-0qlCMYCa7-12" vertex="1">
          <mxGeometry width="30" height="30" as="geometry">
            <mxRectangle width="30" height="30" as="alternateBounds" />
          </mxGeometry>
        </mxCell>
        <mxCell id="ff4JJlkgA0-0qlCMYCa7-14" value="Id: int" style="shape=partialRectangle;connectable=0;fillColor=none;top=0;left=0;bottom=0;right=0;align=left;spacingLeft=6;fontStyle=5;overflow=hidden;shadow=0;sketch=0;fontSize=11;strokeWidth=1;" parent="ff4JJlkgA0-0qlCMYCa7-12" vertex="1">
          <mxGeometry x="30" width="169" height="30" as="geometry">
            <mxRectangle width="169" height="30" as="alternateBounds" />
          </mxGeometry>
        </mxCell>
        <mxCell id="ff4JJlkgA0-0qlCMYCa7-15" value="" style="shape=partialRectangle;collapsible=0;dropTarget=0;pointerEvents=0;fillColor=none;top=0;left=0;bottom=0;right=0;points=[[0,0.5],[1,0.5]];portConstraint=eastwest;shadow=0;sketch=0;fontSize=11;strokeWidth=1;" parent="ff4JJlkgA0-0qlCMYCa7-11" vertex="1">
          <mxGeometry y="60" width="199" height="30" as="geometry" />
        </mxCell>
        <mxCell id="ff4JJlkgA0-0qlCMYCa7-16" value="" style="shape=partialRectangle;connectable=0;fillColor=none;top=0;left=0;bottom=0;right=0;editable=1;overflow=hidden;shadow=0;sketch=0;fontSize=11;strokeWidth=1;" parent="ff4JJlkgA0-0qlCMYCa7-15" vertex="1">
          <mxGeometry width="30" height="30" as="geometry">
            <mxRectangle width="30" height="30" as="alternateBounds" />
          </mxGeometry>
        </mxCell>
        <mxCell id="ff4JJlkgA0-0qlCMYCa7-17" value="Name:nvarchar(30)" style="shape=partialRectangle;connectable=0;fillColor=none;top=0;left=0;bottom=0;right=0;align=left;spacingLeft=6;overflow=hidden;shadow=0;sketch=0;fontSize=11;strokeWidth=1;" parent="ff4JJlkgA0-0qlCMYCa7-15" vertex="1">
          <mxGeometry x="30" width="169" height="30" as="geometry">
            <mxRectangle width="169" height="30" as="alternateBounds" />
          </mxGeometry>
        </mxCell>
        <mxCell id="ff4JJlkgA0-0qlCMYCa7-18" value="" style="shape=partialRectangle;collapsible=0;dropTarget=0;pointerEvents=0;fillColor=none;top=0;left=0;bottom=0;right=0;points=[[0,0.5],[1,0.5]];portConstraint=eastwest;shadow=0;sketch=0;fontSize=11;strokeWidth=1;" parent="ff4JJlkgA0-0qlCMYCa7-11" vertex="1">
          <mxGeometry y="90" width="199" height="30" as="geometry" />
        </mxCell>
        <mxCell id="ff4JJlkgA0-0qlCMYCa7-19" value="" style="shape=partialRectangle;connectable=0;fillColor=none;top=0;left=0;bottom=0;right=0;editable=1;overflow=hidden;shadow=0;sketch=0;fontSize=11;strokeWidth=1;" parent="ff4JJlkgA0-0qlCMYCa7-18" vertex="1">
          <mxGeometry width="30" height="30" as="geometry">
            <mxRectangle width="30" height="30" as="alternateBounds" />
          </mxGeometry>
        </mxCell>
        <mxCell id="ff4JJlkgA0-0qlCMYCa7-20" value="Date of birth: date" style="shape=partialRectangle;connectable=0;fillColor=none;top=0;left=0;bottom=0;right=0;align=left;spacingLeft=6;overflow=hidden;shadow=0;sketch=0;fontSize=11;strokeWidth=1;" parent="ff4JJlkgA0-0qlCMYCa7-18" vertex="1">
          <mxGeometry x="30" width="169" height="30" as="geometry">
            <mxRectangle width="169" height="30" as="alternateBounds" />
          </mxGeometry>
        </mxCell>
        <mxCell id="ff4JJlkgA0-0qlCMYCa7-21" value="" style="shape=partialRectangle;collapsible=0;dropTarget=0;pointerEvents=0;fillColor=none;top=0;left=0;bottom=0;right=0;points=[[0,0.5],[1,0.5]];portConstraint=eastwest;shadow=0;sketch=0;fontSize=11;strokeWidth=1;" parent="ff4JJlkgA0-0qlCMYCa7-11" vertex="1">
          <mxGeometry y="120" width="199" height="30" as="geometry" />
        </mxCell>
        <mxCell id="ff4JJlkgA0-0qlCMYCa7-22" value="" style="shape=partialRectangle;connectable=0;fillColor=none;top=0;left=0;bottom=0;right=0;editable=1;overflow=hidden;shadow=0;sketch=0;fontSize=11;strokeWidth=1;" parent="ff4JJlkgA0-0qlCMYCa7-21" vertex="1">
          <mxGeometry width="30" height="30" as="geometry">
            <mxRectangle width="30" height="30" as="alternateBounds" />
          </mxGeometry>
        </mxCell>
        <mxCell id="ff4JJlkgA0-0qlCMYCa7-23" value="Place of residence:nvarchar(30)" style="shape=partialRectangle;connectable=0;fillColor=none;top=0;left=0;bottom=0;right=0;align=left;spacingLeft=6;overflow=hidden;shadow=0;sketch=0;fontSize=11;strokeWidth=1;" parent="ff4JJlkgA0-0qlCMYCa7-21" vertex="1">
          <mxGeometry x="30" width="169" height="30" as="geometry">
            <mxRectangle width="169" height="30" as="alternateBounds" />
          </mxGeometry>
        </mxCell>
        <mxCell id="ff4JJlkgA0-0qlCMYCa7-24" value="" style="shape=partialRectangle;collapsible=0;dropTarget=0;pointerEvents=0;fillColor=none;top=0;left=0;bottom=0;right=0;points=[[0,0.5],[1,0.5]];portConstraint=eastwest;shadow=0;sketch=0;fontSize=11;strokeWidth=1;" parent="ff4JJlkgA0-0qlCMYCa7-11" vertex="1">
          <mxGeometry y="150" width="199" height="30" as="geometry" />
        </mxCell>
        <mxCell id="ff4JJlkgA0-0qlCMYCa7-25" value="" style="shape=partialRectangle;connectable=0;fillColor=none;top=0;left=0;bottom=0;right=0;editable=1;overflow=hidden;shadow=0;sketch=0;fontSize=11;strokeWidth=1;" parent="ff4JJlkgA0-0qlCMYCa7-24" vertex="1">
          <mxGeometry width="30" height="30" as="geometry">
            <mxRectangle width="30" height="30" as="alternateBounds" />
          </mxGeometry>
        </mxCell>
        <mxCell id="ff4JJlkgA0-0qlCMYCa7-26" value="Email:nvarchar(40)" style="shape=partialRectangle;connectable=0;fillColor=none;top=0;left=0;bottom=0;right=0;align=left;spacingLeft=6;overflow=hidden;shadow=0;sketch=0;fontSize=11;strokeWidth=1;" parent="ff4JJlkgA0-0qlCMYCa7-24" vertex="1">
          <mxGeometry x="30" width="169" height="30" as="geometry">
            <mxRectangle width="169" height="30" as="alternateBounds" />
          </mxGeometry>
        </mxCell>
        <mxCell id="ff4JJlkgA0-0qlCMYCa7-27" value="" style="shape=partialRectangle;collapsible=0;dropTarget=0;pointerEvents=0;fillColor=none;top=0;left=0;bottom=0;right=0;points=[[0,0.5],[1,0.5]];portConstraint=eastwest;shadow=0;sketch=0;fontSize=11;strokeWidth=1;" parent="ff4JJlkgA0-0qlCMYCa7-11" vertex="1">
          <mxGeometry y="180" width="199" height="30" as="geometry" />
        </mxCell>
        <mxCell id="ff4JJlkgA0-0qlCMYCa7-28" value="" style="shape=partialRectangle;connectable=0;fillColor=none;top=0;left=0;bottom=0;right=0;editable=1;overflow=hidden;shadow=0;sketch=0;fontSize=11;strokeWidth=1;" parent="ff4JJlkgA0-0qlCMYCa7-27" vertex="1">
          <mxGeometry width="30" height="30" as="geometry">
            <mxRectangle width="30" height="30" as="alternateBounds" />
          </mxGeometry>
        </mxCell>
        <mxCell id="ff4JJlkgA0-0qlCMYCa7-29" value="Education:nvarchar(50)" style="shape=partialRectangle;connectable=0;fillColor=none;top=0;left=0;bottom=0;right=0;align=left;spacingLeft=6;overflow=hidden;shadow=0;sketch=0;fontSize=11;strokeWidth=1;" parent="ff4JJlkgA0-0qlCMYCa7-27" vertex="1">
          <mxGeometry x="30" width="169" height="30" as="geometry">
            <mxRectangle width="169" height="30" as="alternateBounds" />
          </mxGeometry>
        </mxCell>
        <mxCell id="ff4JJlkgA0-0qlCMYCa7-30" value="" style="shape=partialRectangle;collapsible=0;dropTarget=0;pointerEvents=0;fillColor=none;top=0;left=0;bottom=0;right=0;points=[[0,0.5],[1,0.5]];portConstraint=eastwest;shadow=0;sketch=0;fontSize=11;strokeWidth=1;" parent="ff4JJlkgA0-0qlCMYCa7-11" vertex="1">
          <mxGeometry y="210" width="199" height="30" as="geometry" />
        </mxCell>
        <mxCell id="ff4JJlkgA0-0qlCMYCa7-31" value="" style="shape=partialRectangle;connectable=0;fillColor=none;top=0;left=0;bottom=0;right=0;editable=1;overflow=hidden;shadow=0;sketch=0;fontSize=11;strokeWidth=1;" parent="ff4JJlkgA0-0qlCMYCa7-30" vertex="1">
          <mxGeometry width="30" height="30" as="geometry">
            <mxRectangle width="30" height="30" as="alternateBounds" />
          </mxGeometry>
        </mxCell>
        <mxCell id="ff4JJlkgA0-0qlCMYCa7-32" value="Achievements:nvarchar(100)" style="shape=partialRectangle;connectable=0;fillColor=none;top=0;left=0;bottom=0;right=0;align=left;spacingLeft=6;overflow=hidden;shadow=0;sketch=0;fontSize=11;strokeWidth=1;" parent="ff4JJlkgA0-0qlCMYCa7-30" vertex="1">
          <mxGeometry x="30" width="169" height="30" as="geometry">
            <mxRectangle width="169" height="30" as="alternateBounds" />
          </mxGeometry>
        </mxCell>
        <mxCell id="ff4JJlkgA0-0qlCMYCa7-33" value="" style="shape=partialRectangle;collapsible=0;dropTarget=0;pointerEvents=0;fillColor=none;top=0;left=0;bottom=0;right=0;points=[[0,0.5],[1,0.5]];portConstraint=eastwest;shadow=0;sketch=0;fontSize=11;strokeWidth=1;" parent="ff4JJlkgA0-0qlCMYCa7-11" vertex="1">
          <mxGeometry y="240" width="199" height="30" as="geometry" />
        </mxCell>
        <mxCell id="ff4JJlkgA0-0qlCMYCa7-34" value="" style="shape=partialRectangle;connectable=0;fillColor=none;top=0;left=0;bottom=0;right=0;editable=1;overflow=hidden;shadow=0;sketch=0;fontSize=11;strokeWidth=1;" parent="ff4JJlkgA0-0qlCMYCa7-33" vertex="1">
          <mxGeometry width="30" height="30" as="geometry">
            <mxRectangle width="30" height="30" as="alternateBounds" />
          </mxGeometry>
        </mxCell>
        <mxCell id="ff4JJlkgA0-0qlCMYCa7-35" value="Merits:nvarchar(100)" style="shape=partialRectangle;connectable=0;fillColor=none;top=0;left=0;bottom=0;right=0;align=left;spacingLeft=6;overflow=hidden;shadow=0;sketch=0;fontSize=11;strokeWidth=1;" parent="ff4JJlkgA0-0qlCMYCa7-33" vertex="1">
          <mxGeometry x="30" width="169" height="30" as="geometry">
            <mxRectangle width="169" height="30" as="alternateBounds" />
          </mxGeometry>
        </mxCell>
        <mxCell id="ff4JJlkgA0-0qlCMYCa7-36" value="" style="shape=partialRectangle;collapsible=0;dropTarget=0;pointerEvents=0;fillColor=none;top=0;left=0;bottom=0;right=0;points=[[0,0.5],[1,0.5]];portConstraint=eastwest;shadow=0;sketch=0;fontSize=11;strokeWidth=1;" parent="ff4JJlkgA0-0qlCMYCa7-11" vertex="1">
          <mxGeometry y="270" width="199" height="30" as="geometry" />
        </mxCell>
        <mxCell id="ff4JJlkgA0-0qlCMYCa7-37" value="" style="shape=partialRectangle;connectable=0;fillColor=none;top=0;left=0;bottom=0;right=0;editable=1;overflow=hidden;shadow=0;sketch=0;fontSize=11;strokeWidth=1;" parent="ff4JJlkgA0-0qlCMYCa7-36" vertex="1">
          <mxGeometry width="30" height="30" as="geometry">
            <mxRectangle width="30" height="30" as="alternateBounds" />
          </mxGeometry>
        </mxCell>
        <mxCell id="ff4JJlkgA0-0qlCMYCa7-38" value="Hobbies:nvarchar(50)" style="shape=partialRectangle;connectable=0;fillColor=none;top=0;left=0;bottom=0;right=0;align=left;spacingLeft=6;overflow=hidden;shadow=0;sketch=0;fontSize=11;strokeWidth=1;" parent="ff4JJlkgA0-0qlCMYCa7-36" vertex="1">
          <mxGeometry x="30" width="169" height="30" as="geometry">
            <mxRectangle width="169" height="30" as="alternateBounds" />
          </mxGeometry>
        </mxCell>
        <mxCell id="ff4JJlkgA0-0qlCMYCa7-39" value="" style="shape=partialRectangle;collapsible=0;dropTarget=0;pointerEvents=0;fillColor=none;top=0;left=0;bottom=0;right=0;points=[[0,0.5],[1,0.5]];portConstraint=eastwest;shadow=0;sketch=0;fontSize=11;strokeWidth=1;" parent="ff4JJlkgA0-0qlCMYCa7-11" vertex="1">
          <mxGeometry y="300" width="199" height="30" as="geometry" />
        </mxCell>
        <mxCell id="ff4JJlkgA0-0qlCMYCa7-40" value="" style="shape=partialRectangle;connectable=0;fillColor=none;top=0;left=0;bottom=0;right=0;editable=1;overflow=hidden;shadow=0;sketch=0;fontSize=11;strokeWidth=1;" parent="ff4JJlkgA0-0qlCMYCa7-39" vertex="1">
          <mxGeometry width="30" height="30" as="geometry">
            <mxRectangle width="30" height="30" as="alternateBounds" />
          </mxGeometry>
        </mxCell>
        <mxCell id="ff4JJlkgA0-0qlCMYCa7-41" value="Number of votes:int" style="shape=partialRectangle;connectable=0;fillColor=none;top=0;left=0;bottom=0;right=0;align=left;spacingLeft=6;overflow=hidden;shadow=0;sketch=0;fontSize=11;strokeWidth=1;" parent="ff4JJlkgA0-0qlCMYCa7-39" vertex="1">
          <mxGeometry x="30" width="169" height="30" as="geometry">
            <mxRectangle width="169" height="30" as="alternateBounds" />
          </mxGeometry>
        </mxCell>
        <mxCell id="JNZhqq-527HxPfOMu8t8-25" value="" style="shape=partialRectangle;collapsible=0;dropTarget=0;pointerEvents=0;fillColor=none;top=0;left=0;bottom=0;right=0;points=[[0,0.5],[1,0.5]];portConstraint=eastwest;shadow=0;sketch=0;fontSize=11;strokeWidth=1;" parent="ff4JJlkgA0-0qlCMYCa7-11" vertex="1">
          <mxGeometry y="330" width="199" height="30" as="geometry" />
        </mxCell>
        <mxCell id="JNZhqq-527HxPfOMu8t8-26" value="" style="shape=partialRectangle;connectable=0;fillColor=none;top=0;left=0;bottom=0;right=0;editable=1;overflow=hidden;shadow=0;sketch=0;fontSize=11;strokeWidth=1;" parent="JNZhqq-527HxPfOMu8t8-25" vertex="1">
          <mxGeometry width="30" height="30" as="geometry">
            <mxRectangle width="30" height="30" as="alternateBounds" />
          </mxGeometry>
        </mxCell>
        <mxCell id="JNZhqq-527HxPfOMu8t8-27" value="Candidate_InformationID:int" style="shape=partialRectangle;connectable=0;fillColor=none;top=0;left=0;bottom=0;right=0;align=left;spacingLeft=6;overflow=hidden;shadow=0;sketch=0;fontSize=11;strokeWidth=1;" parent="JNZhqq-527HxPfOMu8t8-25" vertex="1">
          <mxGeometry x="30" width="169" height="30" as="geometry">
            <mxRectangle width="169" height="30" as="alternateBounds" />
          </mxGeometry>
        </mxCell>
        <mxCell id="ff4JJlkgA0-0qlCMYCa7-42" value="TermsOfParticipation" style="shape=table;startSize=30;container=1;collapsible=1;childLayout=tableLayout;fixedRows=1;rowLines=0;fontStyle=1;align=center;resizeLast=1;shadow=0;sketch=0;fontSize=11;strokeWidth=1;" parent="1" vertex="1">
          <mxGeometry x="320" y="150" width="180" height="190" as="geometry">
            <mxRectangle x="360" y="80" width="190" height="30" as="alternateBounds" />
          </mxGeometry>
        </mxCell>
        <mxCell id="ff4JJlkgA0-0qlCMYCa7-43" value="" style="shape=partialRectangle;collapsible=0;dropTarget=0;pointerEvents=0;fillColor=none;top=0;left=0;bottom=1;right=0;points=[[0,0.5],[1,0.5]];portConstraint=eastwest;shadow=0;sketch=0;fontSize=11;strokeWidth=1;" parent="ff4JJlkgA0-0qlCMYCa7-42" vertex="1">
          <mxGeometry y="30" width="180" height="30" as="geometry" />
        </mxCell>
        <mxCell id="ff4JJlkgA0-0qlCMYCa7-44" value="PK" style="shape=partialRectangle;connectable=0;fillColor=none;top=0;left=0;bottom=0;right=0;fontStyle=1;overflow=hidden;shadow=0;sketch=0;fontSize=11;strokeWidth=1;" parent="ff4JJlkgA0-0qlCMYCa7-43" vertex="1">
          <mxGeometry width="30" height="30" as="geometry">
            <mxRectangle width="30" height="30" as="alternateBounds" />
          </mxGeometry>
        </mxCell>
        <mxCell id="ff4JJlkgA0-0qlCMYCa7-45" value="Terms_ParticipationID" style="shape=partialRectangle;connectable=0;fillColor=none;top=0;left=0;bottom=0;right=0;align=left;spacingLeft=6;fontStyle=5;overflow=hidden;shadow=0;sketch=0;fontSize=11;strokeWidth=1;" parent="ff4JJlkgA0-0qlCMYCa7-43" vertex="1">
          <mxGeometry x="30" width="150" height="30" as="geometry">
            <mxRectangle width="150" height="30" as="alternateBounds" />
          </mxGeometry>
        </mxCell>
        <mxCell id="ff4JJlkgA0-0qlCMYCa7-46" value="" style="shape=partialRectangle;collapsible=0;dropTarget=0;pointerEvents=0;fillColor=none;top=0;left=0;bottom=0;right=0;points=[[0,0.5],[1,0.5]];portConstraint=eastwest;shadow=0;sketch=0;fontSize=11;strokeWidth=1;" parent="ff4JJlkgA0-0qlCMYCa7-42" vertex="1">
          <mxGeometry y="60" width="180" height="30" as="geometry" />
        </mxCell>
        <mxCell id="ff4JJlkgA0-0qlCMYCa7-47" value="" style="shape=partialRectangle;connectable=0;fillColor=none;top=0;left=0;bottom=0;right=0;editable=1;overflow=hidden;shadow=0;sketch=0;fontSize=11;strokeWidth=1;" parent="ff4JJlkgA0-0qlCMYCa7-46" vertex="1">
          <mxGeometry width="30" height="30" as="geometry">
            <mxRectangle width="30" height="30" as="alternateBounds" />
          </mxGeometry>
        </mxCell>
        <mxCell id="ff4JJlkgA0-0qlCMYCa7-48" value="Criminal record:bit" style="shape=partialRectangle;connectable=0;fillColor=none;top=0;left=0;bottom=0;right=0;align=left;spacingLeft=6;overflow=hidden;shadow=0;sketch=0;fontSize=11;strokeWidth=1;" parent="ff4JJlkgA0-0qlCMYCa7-46" vertex="1">
          <mxGeometry x="30" width="150" height="30" as="geometry">
            <mxRectangle width="150" height="30" as="alternateBounds" />
          </mxGeometry>
        </mxCell>
        <mxCell id="ff4JJlkgA0-0qlCMYCa7-49" value="" style="shape=partialRectangle;collapsible=0;dropTarget=0;pointerEvents=0;fillColor=none;top=0;left=0;bottom=0;right=0;points=[[0,0.5],[1,0.5]];portConstraint=eastwest;shadow=0;sketch=0;fontSize=11;strokeWidth=1;" parent="ff4JJlkgA0-0qlCMYCa7-42" vertex="1">
          <mxGeometry y="90" width="180" height="30" as="geometry" />
        </mxCell>
        <mxCell id="ff4JJlkgA0-0qlCMYCa7-50" value="" style="shape=partialRectangle;connectable=0;fillColor=none;top=0;left=0;bottom=0;right=0;editable=1;overflow=hidden;shadow=0;sketch=0;fontSize=11;strokeWidth=1;" parent="ff4JJlkgA0-0qlCMYCa7-49" vertex="1">
          <mxGeometry width="30" height="30" as="geometry">
            <mxRectangle width="30" height="30" as="alternateBounds" />
          </mxGeometry>
        </mxCell>
        <mxCell id="ff4JJlkgA0-0qlCMYCa7-51" value="Citizenship:nvarchar(20)" style="shape=partialRectangle;connectable=0;fillColor=none;top=0;left=0;bottom=0;right=0;align=left;spacingLeft=6;overflow=hidden;shadow=0;sketch=0;fontSize=11;strokeWidth=1;" parent="ff4JJlkgA0-0qlCMYCa7-49" vertex="1">
          <mxGeometry x="30" width="150" height="30" as="geometry">
            <mxRectangle width="150" height="30" as="alternateBounds" />
          </mxGeometry>
        </mxCell>
        <mxCell id="ff4JJlkgA0-0qlCMYCa7-52" value="" style="shape=partialRectangle;collapsible=0;dropTarget=0;pointerEvents=0;fillColor=none;top=0;left=0;bottom=0;right=0;points=[[0,0.5],[1,0.5]];portConstraint=eastwest;shadow=0;sketch=0;fontSize=11;strokeWidth=1;" parent="ff4JJlkgA0-0qlCMYCa7-42" vertex="1">
          <mxGeometry y="120" width="180" height="30" as="geometry" />
        </mxCell>
        <mxCell id="ff4JJlkgA0-0qlCMYCa7-53" value="" style="shape=partialRectangle;connectable=0;fillColor=none;top=0;left=0;bottom=0;right=0;editable=1;overflow=hidden;shadow=0;sketch=0;fontSize=11;strokeWidth=1;" parent="ff4JJlkgA0-0qlCMYCa7-52" vertex="1">
          <mxGeometry width="30" height="30" as="geometry">
            <mxRectangle width="30" height="30" as="alternateBounds" />
          </mxGeometry>
        </mxCell>
        <mxCell id="ff4JJlkgA0-0qlCMYCa7-54" value="Legal status:nvarchar(30)" style="shape=partialRectangle;connectable=0;fillColor=none;top=0;left=0;bottom=0;right=0;align=left;spacingLeft=6;overflow=hidden;shadow=0;sketch=0;fontSize=11;strokeWidth=1;" parent="ff4JJlkgA0-0qlCMYCa7-52" vertex="1">
          <mxGeometry x="30" width="150" height="30" as="geometry">
            <mxRectangle width="150" height="30" as="alternateBounds" />
          </mxGeometry>
        </mxCell>
        <mxCell id="q5peEvXd3cXD_htm8zkx-1" value="" style="shape=partialRectangle;collapsible=0;dropTarget=0;pointerEvents=0;fillColor=none;top=0;left=0;bottom=0;right=0;points=[[0,0.5],[1,0.5]];portConstraint=eastwest;shadow=0;sketch=0;fontSize=11;strokeWidth=1;" parent="ff4JJlkgA0-0qlCMYCa7-42" vertex="1">
          <mxGeometry y="150" width="180" height="30" as="geometry" />
        </mxCell>
        <mxCell id="q5peEvXd3cXD_htm8zkx-2" value="FK" style="shape=partialRectangle;connectable=0;fillColor=none;top=0;left=0;bottom=0;right=0;editable=1;overflow=hidden;shadow=0;sketch=0;fontSize=11;strokeWidth=1;" parent="q5peEvXd3cXD_htm8zkx-1" vertex="1">
          <mxGeometry width="30" height="30" as="geometry">
            <mxRectangle width="30" height="30" as="alternateBounds" />
          </mxGeometry>
        </mxCell>
        <mxCell id="q5peEvXd3cXD_htm8zkx-3" value="AdminId:int" style="shape=partialRectangle;connectable=0;fillColor=none;top=0;left=0;bottom=0;right=0;align=left;spacingLeft=6;overflow=hidden;shadow=0;sketch=0;fontSize=11;strokeWidth=1;" parent="q5peEvXd3cXD_htm8zkx-1" vertex="1">
          <mxGeometry x="30" width="150" height="30" as="geometry">
            <mxRectangle width="150" height="30" as="alternateBounds" />
          </mxGeometry>
        </mxCell>
        <mxCell id="ff4JJlkgA0-0qlCMYCa7-68" value="MaterialsForAgitathion" style="shape=table;startSize=30;container=1;collapsible=1;childLayout=tableLayout;fixedRows=1;rowLines=0;fontStyle=1;align=center;resizeLast=1;shadow=0;sketch=0;fontSize=11;strokeWidth=1;" parent="1" vertex="1">
          <mxGeometry x="1120" y="620" width="270" height="280" as="geometry">
            <mxRectangle x="910" y="575" width="170" height="30" as="alternateBounds" />
          </mxGeometry>
        </mxCell>
        <mxCell id="ff4JJlkgA0-0qlCMYCa7-69" value="" style="shape=partialRectangle;collapsible=0;dropTarget=0;pointerEvents=0;fillColor=none;top=0;left=0;bottom=1;right=0;points=[[0,0.5],[1,0.5]];portConstraint=eastwest;shadow=0;sketch=0;fontSize=11;strokeWidth=1;" parent="ff4JJlkgA0-0qlCMYCa7-68" vertex="1">
          <mxGeometry y="30" width="270" height="30" as="geometry" />
        </mxCell>
        <mxCell id="ff4JJlkgA0-0qlCMYCa7-70" value="PK" style="shape=partialRectangle;connectable=0;fillColor=none;top=0;left=0;bottom=0;right=0;fontStyle=1;overflow=hidden;shadow=0;sketch=0;fontSize=11;strokeWidth=1;" parent="ff4JJlkgA0-0qlCMYCa7-69" vertex="1">
          <mxGeometry width="30" height="30" as="geometry">
            <mxRectangle width="30" height="30" as="alternateBounds" />
          </mxGeometry>
        </mxCell>
        <mxCell id="ff4JJlkgA0-0qlCMYCa7-71" value="AgitationID" style="shape=partialRectangle;connectable=0;fillColor=none;top=0;left=0;bottom=0;right=0;align=left;spacingLeft=6;fontStyle=5;overflow=hidden;shadow=0;sketch=0;fontSize=11;strokeWidth=1;" parent="ff4JJlkgA0-0qlCMYCa7-69" vertex="1">
          <mxGeometry x="30" width="240" height="30" as="geometry">
            <mxRectangle width="240" height="30" as="alternateBounds" />
          </mxGeometry>
        </mxCell>
        <mxCell id="ff4JJlkgA0-0qlCMYCa7-72" value="" style="shape=partialRectangle;collapsible=0;dropTarget=0;pointerEvents=0;fillColor=none;top=0;left=0;bottom=0;right=0;points=[[0,0.5],[1,0.5]];portConstraint=eastwest;shadow=0;sketch=0;fontSize=11;strokeWidth=1;" parent="ff4JJlkgA0-0qlCMYCa7-68" vertex="1">
          <mxGeometry y="60" width="270" height="30" as="geometry" />
        </mxCell>
        <mxCell id="ff4JJlkgA0-0qlCMYCa7-73" value="" style="shape=partialRectangle;connectable=0;fillColor=none;top=0;left=0;bottom=0;right=0;editable=1;overflow=hidden;shadow=0;sketch=0;fontSize=11;strokeWidth=1;" parent="ff4JJlkgA0-0qlCMYCa7-72" vertex="1">
          <mxGeometry width="30" height="30" as="geometry">
            <mxRectangle width="30" height="30" as="alternateBounds" />
          </mxGeometry>
        </mxCell>
        <mxCell id="ff4JJlkgA0-0qlCMYCa7-74" value="Call to vote for a candidate:nvarchat(50)" style="shape=partialRectangle;connectable=0;fillColor=none;top=0;left=0;bottom=0;right=0;align=left;spacingLeft=6;overflow=hidden;shadow=0;sketch=0;fontSize=11;strokeWidth=1;" parent="ff4JJlkgA0-0qlCMYCa7-72" vertex="1">
          <mxGeometry x="30" width="240" height="30" as="geometry">
            <mxRectangle width="240" height="30" as="alternateBounds" />
          </mxGeometry>
        </mxCell>
        <mxCell id="ff4JJlkgA0-0qlCMYCa7-75" value="" style="shape=partialRectangle;collapsible=0;dropTarget=0;pointerEvents=0;fillColor=none;top=0;left=0;bottom=0;right=0;points=[[0,0.5],[1,0.5]];portConstraint=eastwest;shadow=0;sketch=0;fontSize=11;strokeWidth=1;" parent="ff4JJlkgA0-0qlCMYCa7-68" vertex="1">
          <mxGeometry y="90" width="270" height="30" as="geometry" />
        </mxCell>
        <mxCell id="ff4JJlkgA0-0qlCMYCa7-76" value="" style="shape=partialRectangle;connectable=0;fillColor=none;top=0;left=0;bottom=0;right=0;editable=1;overflow=hidden;shadow=0;sketch=0;fontSize=11;strokeWidth=1;" parent="ff4JJlkgA0-0qlCMYCa7-75" vertex="1">
          <mxGeometry width="30" height="30" as="geometry">
            <mxRectangle width="30" height="30" as="alternateBounds" />
          </mxGeometry>
        </mxCell>
        <mxCell id="ff4JJlkgA0-0qlCMYCa7-77" value="Slogan:nvarchar(50)" style="shape=partialRectangle;connectable=0;fillColor=none;top=0;left=0;bottom=0;right=0;align=left;spacingLeft=6;overflow=hidden;shadow=0;sketch=0;fontSize=11;strokeWidth=1;" parent="ff4JJlkgA0-0qlCMYCa7-75" vertex="1">
          <mxGeometry x="30" width="240" height="30" as="geometry">
            <mxRectangle width="240" height="30" as="alternateBounds" />
          </mxGeometry>
        </mxCell>
        <mxCell id="ff4JJlkgA0-0qlCMYCa7-78" value="" style="shape=partialRectangle;collapsible=0;dropTarget=0;pointerEvents=0;fillColor=none;top=0;left=0;bottom=0;right=0;points=[[0,0.5],[1,0.5]];portConstraint=eastwest;shadow=0;sketch=0;fontSize=11;strokeWidth=1;" parent="ff4JJlkgA0-0qlCMYCa7-68" vertex="1">
          <mxGeometry y="120" width="270" height="30" as="geometry" />
        </mxCell>
        <mxCell id="ff4JJlkgA0-0qlCMYCa7-79" value="" style="shape=partialRectangle;connectable=0;fillColor=none;top=0;left=0;bottom=0;right=0;editable=1;overflow=hidden;shadow=0;sketch=0;fontSize=11;strokeWidth=1;" parent="ff4JJlkgA0-0qlCMYCa7-78" vertex="1">
          <mxGeometry width="30" height="30" as="geometry">
            <mxRectangle width="30" height="30" as="alternateBounds" />
          </mxGeometry>
        </mxCell>
        <mxCell id="ff4JJlkgA0-0qlCMYCa7-80" value="Information about the candidate &#39;s&#xa; activities :nvarchar(50)" style="shape=partialRectangle;connectable=0;fillColor=none;top=0;left=0;bottom=0;right=0;align=left;spacingLeft=6;overflow=hidden;shadow=0;sketch=0;fontSize=11;strokeWidth=1;" parent="ff4JJlkgA0-0qlCMYCa7-78" vertex="1">
          <mxGeometry x="30" width="240" height="30" as="geometry">
            <mxRectangle width="240" height="30" as="alternateBounds" />
          </mxGeometry>
        </mxCell>
        <mxCell id="ff4JJlkgA0-0qlCMYCa7-81" value="" style="shape=partialRectangle;collapsible=0;dropTarget=0;pointerEvents=0;fillColor=none;top=0;left=0;bottom=0;right=0;points=[[0,0.5],[1,0.5]];portConstraint=eastwest;shadow=0;sketch=0;fontSize=11;strokeWidth=1;" parent="ff4JJlkgA0-0qlCMYCa7-68" vertex="1">
          <mxGeometry y="150" width="270" height="30" as="geometry" />
        </mxCell>
        <mxCell id="ff4JJlkgA0-0qlCMYCa7-82" value="" style="shape=partialRectangle;connectable=0;fillColor=none;top=0;left=0;bottom=0;right=0;editable=1;overflow=hidden;shadow=0;sketch=0;fontSize=11;strokeWidth=1;" parent="ff4JJlkgA0-0qlCMYCa7-81" vertex="1">
          <mxGeometry width="30" height="30" as="geometry">
            <mxRectangle width="30" height="30" as="alternateBounds" />
          </mxGeometry>
        </mxCell>
        <mxCell id="ff4JJlkgA0-0qlCMYCa7-83" value="Candidate&#39;s program:nvarchar(50)" style="shape=partialRectangle;connectable=0;fillColor=none;top=0;left=0;bottom=0;right=0;align=left;spacingLeft=6;overflow=hidden;shadow=0;sketch=0;fontSize=11;strokeWidth=1;" parent="ff4JJlkgA0-0qlCMYCa7-81" vertex="1">
          <mxGeometry x="30" width="240" height="30" as="geometry">
            <mxRectangle width="240" height="30" as="alternateBounds" />
          </mxGeometry>
        </mxCell>
        <mxCell id="ff4JJlkgA0-0qlCMYCa7-84" value="" style="shape=partialRectangle;collapsible=0;dropTarget=0;pointerEvents=0;fillColor=none;top=0;left=0;bottom=0;right=0;points=[[0,0.5],[1,0.5]];portConstraint=eastwest;shadow=0;sketch=0;fontSize=11;strokeWidth=1;" parent="ff4JJlkgA0-0qlCMYCa7-68" vertex="1">
          <mxGeometry y="180" width="270" height="30" as="geometry" />
        </mxCell>
        <mxCell id="ff4JJlkgA0-0qlCMYCa7-85" value="" style="shape=partialRectangle;connectable=0;fillColor=none;top=0;left=0;bottom=0;right=0;editable=1;overflow=hidden;shadow=0;sketch=0;fontSize=11;strokeWidth=1;" parent="ff4JJlkgA0-0qlCMYCa7-84" vertex="1">
          <mxGeometry width="30" height="30" as="geometry">
            <mxRectangle width="30" height="30" as="alternateBounds" />
          </mxGeometry>
        </mxCell>
        <mxCell id="ff4JJlkgA0-0qlCMYCa7-86" value="Program interview:nvarchar(50)" style="shape=partialRectangle;connectable=0;fillColor=none;top=0;left=0;bottom=0;right=0;align=left;spacingLeft=6;overflow=hidden;shadow=0;sketch=0;fontSize=11;strokeWidth=1;" parent="ff4JJlkgA0-0qlCMYCa7-84" vertex="1">
          <mxGeometry x="30" width="240" height="30" as="geometry">
            <mxRectangle width="240" height="30" as="alternateBounds" />
          </mxGeometry>
        </mxCell>
        <mxCell id="ff4JJlkgA0-0qlCMYCa7-87" value="" style="shape=partialRectangle;collapsible=0;dropTarget=0;pointerEvents=0;fillColor=none;top=0;left=0;bottom=0;right=0;points=[[0,0.5],[1,0.5]];portConstraint=eastwest;shadow=0;sketch=0;fontSize=11;strokeWidth=1;" parent="ff4JJlkgA0-0qlCMYCa7-68" vertex="1">
          <mxGeometry y="210" width="270" height="30" as="geometry" />
        </mxCell>
        <mxCell id="ff4JJlkgA0-0qlCMYCa7-88" value="" style="shape=partialRectangle;connectable=0;fillColor=none;top=0;left=0;bottom=0;right=0;editable=1;overflow=hidden;shadow=0;sketch=0;fontSize=11;strokeWidth=1;" parent="ff4JJlkgA0-0qlCMYCa7-87" vertex="1">
          <mxGeometry width="30" height="30" as="geometry">
            <mxRectangle width="30" height="30" as="alternateBounds" />
          </mxGeometry>
        </mxCell>
        <mxCell id="ff4JJlkgA0-0qlCMYCa7-89" value="Message:nvarchar(60)" style="shape=partialRectangle;connectable=0;fillColor=none;top=0;left=0;bottom=0;right=0;align=left;spacingLeft=6;overflow=hidden;shadow=0;sketch=0;fontSize=11;strokeWidth=1;" parent="ff4JJlkgA0-0qlCMYCa7-87" vertex="1">
          <mxGeometry x="30" width="240" height="30" as="geometry">
            <mxRectangle width="240" height="30" as="alternateBounds" />
          </mxGeometry>
        </mxCell>
        <mxCell id="2Q01-_YqrM35rokOqB0F-4" value="" style="shape=partialRectangle;collapsible=0;dropTarget=0;pointerEvents=0;fillColor=none;top=0;left=0;bottom=0;right=0;points=[[0,0.5],[1,0.5]];portConstraint=eastwest;shadow=0;sketch=0;fontSize=11;strokeWidth=1;" parent="ff4JJlkgA0-0qlCMYCa7-68" vertex="1">
          <mxGeometry y="240" width="270" height="30" as="geometry" />
        </mxCell>
        <mxCell id="2Q01-_YqrM35rokOqB0F-5" value="FK" style="shape=partialRectangle;connectable=0;fillColor=none;top=0;left=0;bottom=0;right=0;editable=1;overflow=hidden;shadow=0;sketch=0;fontSize=11;strokeWidth=1;" parent="2Q01-_YqrM35rokOqB0F-4" vertex="1">
          <mxGeometry width="30" height="30" as="geometry">
            <mxRectangle width="30" height="30" as="alternateBounds" />
          </mxGeometry>
        </mxCell>
        <mxCell id="2Q01-_YqrM35rokOqB0F-6" value="CandidatId: int" style="shape=partialRectangle;connectable=0;fillColor=none;top=0;left=0;bottom=0;right=0;align=left;spacingLeft=6;overflow=hidden;shadow=0;sketch=0;fontSize=11;strokeWidth=1;" parent="2Q01-_YqrM35rokOqB0F-4" vertex="1">
          <mxGeometry x="30" width="240" height="30" as="geometry">
            <mxRectangle width="240" height="30" as="alternateBounds" />
          </mxGeometry>
        </mxCell>
        <mxCell id="ff4JJlkgA0-0qlCMYCa7-90" value="Candidate" style="shape=table;startSize=30;container=1;collapsible=1;childLayout=tableLayout;fixedRows=1;rowLines=0;fontStyle=1;align=center;resizeLast=1;" parent="1" vertex="1">
          <mxGeometry x="900" y="400" width="180" height="130" as="geometry">
            <mxRectangle x="1000" y="310" width="90" height="30" as="alternateBounds" />
          </mxGeometry>
        </mxCell>
        <mxCell id="ff4JJlkgA0-0qlCMYCa7-91" value="" style="shape=partialRectangle;collapsible=0;dropTarget=0;pointerEvents=0;fillColor=none;top=0;left=0;bottom=1;right=0;points=[[0,0.5],[1,0.5]];portConstraint=eastwest;" parent="ff4JJlkgA0-0qlCMYCa7-90" vertex="1">
          <mxGeometry y="30" width="180" height="30" as="geometry" />
        </mxCell>
        <mxCell id="ff4JJlkgA0-0qlCMYCa7-92" value="PK" style="shape=partialRectangle;connectable=0;fillColor=none;top=0;left=0;bottom=0;right=0;fontStyle=1;overflow=hidden;" parent="ff4JJlkgA0-0qlCMYCa7-91" vertex="1">
          <mxGeometry width="30" height="30" as="geometry">
            <mxRectangle width="30" height="30" as="alternateBounds" />
          </mxGeometry>
        </mxCell>
        <mxCell id="ff4JJlkgA0-0qlCMYCa7-93" value="CandidateID" style="shape=partialRectangle;connectable=0;fillColor=none;top=0;left=0;bottom=0;right=0;align=left;spacingLeft=6;fontStyle=5;overflow=hidden;" parent="ff4JJlkgA0-0qlCMYCa7-91" vertex="1">
          <mxGeometry x="30" width="150" height="30" as="geometry">
            <mxRectangle width="150" height="30" as="alternateBounds" />
          </mxGeometry>
        </mxCell>
        <mxCell id="ff4JJlkgA0-0qlCMYCa7-94" value="" style="shape=partialRectangle;collapsible=0;dropTarget=0;pointerEvents=0;fillColor=none;top=0;left=0;bottom=0;right=0;points=[[0,0.5],[1,0.5]];portConstraint=eastwest;" parent="ff4JJlkgA0-0qlCMYCa7-90" vertex="1">
          <mxGeometry y="60" width="180" height="30" as="geometry" />
        </mxCell>
        <mxCell id="ff4JJlkgA0-0qlCMYCa7-95" value="" style="shape=partialRectangle;connectable=0;fillColor=none;top=0;left=0;bottom=0;right=0;editable=1;overflow=hidden;" parent="ff4JJlkgA0-0qlCMYCa7-94" vertex="1">
          <mxGeometry width="30" height="30" as="geometry">
            <mxRectangle width="30" height="30" as="alternateBounds" />
          </mxGeometry>
        </mxCell>
        <mxCell id="ff4JJlkgA0-0qlCMYCa7-96" value="Name:nvarchar(30)" style="shape=partialRectangle;connectable=0;fillColor=none;top=0;left=0;bottom=0;right=0;align=left;spacingLeft=6;overflow=hidden;" parent="ff4JJlkgA0-0qlCMYCa7-94" vertex="1">
          <mxGeometry x="30" width="150" height="30" as="geometry">
            <mxRectangle width="150" height="30" as="alternateBounds" />
          </mxGeometry>
        </mxCell>
        <mxCell id="ff4JJlkgA0-0qlCMYCa7-97" value="" style="shape=partialRectangle;collapsible=0;dropTarget=0;pointerEvents=0;fillColor=none;top=0;left=0;bottom=0;right=0;points=[[0,0.5],[1,0.5]];portConstraint=eastwest;" parent="ff4JJlkgA0-0qlCMYCa7-90" vertex="1">
          <mxGeometry y="90" width="180" height="30" as="geometry" />
        </mxCell>
        <mxCell id="ff4JJlkgA0-0qlCMYCa7-98" value="" style="shape=partialRectangle;connectable=0;fillColor=none;top=0;left=0;bottom=0;right=0;editable=1;overflow=hidden;" parent="ff4JJlkgA0-0qlCMYCa7-97" vertex="1">
          <mxGeometry width="30" height="30" as="geometry">
            <mxRectangle width="30" height="30" as="alternateBounds" />
          </mxGeometry>
        </mxCell>
        <mxCell id="ff4JJlkgA0-0qlCMYCa7-99" value="Date of birth:date" style="shape=partialRectangle;connectable=0;fillColor=none;top=0;left=0;bottom=0;right=0;align=left;spacingLeft=6;overflow=hidden;" parent="ff4JJlkgA0-0qlCMYCa7-97" vertex="1">
          <mxGeometry x="30" width="150" height="30" as="geometry">
            <mxRectangle width="150" height="30" as="alternateBounds" />
          </mxGeometry>
        </mxCell>
        <mxCell id="ff4JJlkgA0-0qlCMYCa7-103" value="Voter" style="shape=table;startSize=30;container=1;collapsible=1;childLayout=tableLayout;fixedRows=1;rowLines=0;fontStyle=1;align=center;resizeLast=1;" parent="1" vertex="1">
          <mxGeometry x="160" y="610" width="200" height="190" as="geometry">
            <mxRectangle x="-280" y="280" width="100" height="30" as="alternateBounds" />
          </mxGeometry>
        </mxCell>
        <mxCell id="ff4JJlkgA0-0qlCMYCa7-104" value="" style="shape=partialRectangle;collapsible=0;dropTarget=0;pointerEvents=0;fillColor=none;top=0;left=0;bottom=1;right=0;points=[[0,0.5],[1,0.5]];portConstraint=eastwest;" parent="ff4JJlkgA0-0qlCMYCa7-103" vertex="1">
          <mxGeometry y="30" width="200" height="30" as="geometry" />
        </mxCell>
        <mxCell id="ff4JJlkgA0-0qlCMYCa7-105" value="PK" style="shape=partialRectangle;connectable=0;fillColor=none;top=0;left=0;bottom=0;right=0;fontStyle=1;overflow=hidden;" parent="ff4JJlkgA0-0qlCMYCa7-104" vertex="1">
          <mxGeometry width="30" height="30" as="geometry">
            <mxRectangle width="30" height="30" as="alternateBounds" />
          </mxGeometry>
        </mxCell>
        <mxCell id="ff4JJlkgA0-0qlCMYCa7-106" value="VoterID" style="shape=partialRectangle;connectable=0;fillColor=none;top=0;left=0;bottom=0;right=0;align=left;spacingLeft=6;fontStyle=5;overflow=hidden;" parent="ff4JJlkgA0-0qlCMYCa7-104" vertex="1">
          <mxGeometry x="30" width="170" height="30" as="geometry">
            <mxRectangle width="170" height="30" as="alternateBounds" />
          </mxGeometry>
        </mxCell>
        <mxCell id="ff4JJlkgA0-0qlCMYCa7-107" value="" style="shape=partialRectangle;collapsible=0;dropTarget=0;pointerEvents=0;fillColor=none;top=0;left=0;bottom=0;right=0;points=[[0,0.5],[1,0.5]];portConstraint=eastwest;" parent="ff4JJlkgA0-0qlCMYCa7-103" vertex="1">
          <mxGeometry y="60" width="200" height="30" as="geometry" />
        </mxCell>
        <mxCell id="ff4JJlkgA0-0qlCMYCa7-108" value="" style="shape=partialRectangle;connectable=0;fillColor=none;top=0;left=0;bottom=0;right=0;editable=1;overflow=hidden;" parent="ff4JJlkgA0-0qlCMYCa7-107" vertex="1">
          <mxGeometry width="30" height="30" as="geometry">
            <mxRectangle width="30" height="30" as="alternateBounds" />
          </mxGeometry>
        </mxCell>
        <mxCell id="ff4JJlkgA0-0qlCMYCa7-109" value="Name:nvarchar(30)" style="shape=partialRectangle;connectable=0;fillColor=none;top=0;left=0;bottom=0;right=0;align=left;spacingLeft=6;overflow=hidden;" parent="ff4JJlkgA0-0qlCMYCa7-107" vertex="1">
          <mxGeometry x="30" width="170" height="30" as="geometry">
            <mxRectangle width="170" height="30" as="alternateBounds" />
          </mxGeometry>
        </mxCell>
        <mxCell id="ff4JJlkgA0-0qlCMYCa7-110" value="" style="shape=partialRectangle;collapsible=0;dropTarget=0;pointerEvents=0;fillColor=none;top=0;left=0;bottom=0;right=0;points=[[0,0.5],[1,0.5]];portConstraint=eastwest;" parent="ff4JJlkgA0-0qlCMYCa7-103" vertex="1">
          <mxGeometry y="90" width="200" height="30" as="geometry" />
        </mxCell>
        <mxCell id="ff4JJlkgA0-0qlCMYCa7-111" value="" style="shape=partialRectangle;connectable=0;fillColor=none;top=0;left=0;bottom=0;right=0;editable=1;overflow=hidden;" parent="ff4JJlkgA0-0qlCMYCa7-110" vertex="1">
          <mxGeometry width="30" height="30" as="geometry">
            <mxRectangle width="30" height="30" as="alternateBounds" />
          </mxGeometry>
        </mxCell>
        <mxCell id="ff4JJlkgA0-0qlCMYCa7-112" value="Date of birth:date" style="shape=partialRectangle;connectable=0;fillColor=none;top=0;left=0;bottom=0;right=0;align=left;spacingLeft=6;overflow=hidden;" parent="ff4JJlkgA0-0qlCMYCa7-110" vertex="1">
          <mxGeometry x="30" width="170" height="30" as="geometry">
            <mxRectangle width="170" height="30" as="alternateBounds" />
          </mxGeometry>
        </mxCell>
        <mxCell id="ff4JJlkgA0-0qlCMYCa7-113" value="" style="shape=partialRectangle;collapsible=0;dropTarget=0;pointerEvents=0;fillColor=none;top=0;left=0;bottom=0;right=0;points=[[0,0.5],[1,0.5]];portConstraint=eastwest;" parent="ff4JJlkgA0-0qlCMYCa7-103" vertex="1">
          <mxGeometry y="120" width="200" height="30" as="geometry" />
        </mxCell>
        <mxCell id="ff4JJlkgA0-0qlCMYCa7-114" value="" style="shape=partialRectangle;connectable=0;fillColor=none;top=0;left=0;bottom=0;right=0;editable=1;overflow=hidden;" parent="ff4JJlkgA0-0qlCMYCa7-113" vertex="1">
          <mxGeometry width="30" height="30" as="geometry">
            <mxRectangle width="30" height="30" as="alternateBounds" />
          </mxGeometry>
        </mxCell>
        <mxCell id="ff4JJlkgA0-0qlCMYCa7-115" value="PasportSeries" style="shape=partialRectangle;connectable=0;top=0;left=0;bottom=0;right=0;align=left;spacingLeft=6;overflow=hidden;" parent="ff4JJlkgA0-0qlCMYCa7-113" vertex="1">
          <mxGeometry x="30" width="170" height="30" as="geometry">
            <mxRectangle width="170" height="30" as="alternateBounds" />
          </mxGeometry>
        </mxCell>
        <mxCell id="2Q01-_YqrM35rokOqB0F-1" value="" style="shape=partialRectangle;collapsible=0;dropTarget=0;pointerEvents=0;fillColor=none;top=0;left=0;bottom=0;right=0;points=[[0,0.5],[1,0.5]];portConstraint=eastwest;" parent="ff4JJlkgA0-0qlCMYCa7-103" vertex="1">
          <mxGeometry y="150" width="200" height="30" as="geometry" />
        </mxCell>
        <mxCell id="2Q01-_YqrM35rokOqB0F-2" value="" style="shape=partialRectangle;connectable=0;fillColor=none;top=0;left=0;bottom=0;right=0;editable=1;overflow=hidden;" parent="2Q01-_YqrM35rokOqB0F-1" vertex="1">
          <mxGeometry width="30" height="30" as="geometry">
            <mxRectangle width="30" height="30" as="alternateBounds" />
          </mxGeometry>
        </mxCell>
        <mxCell id="2Q01-_YqrM35rokOqB0F-3" value="PasportNumber" style="shape=partialRectangle;connectable=0;top=0;left=0;bottom=0;right=0;align=left;spacingLeft=6;overflow=hidden;" parent="2Q01-_YqrM35rokOqB0F-1" vertex="1">
          <mxGeometry x="30" width="170" height="30" as="geometry">
            <mxRectangle width="170" height="30" as="alternateBounds" />
          </mxGeometry>
        </mxCell>
        <mxCell id="ff4JJlkgA0-0qlCMYCa7-116" value="Admin" style="shape=table;startSize=30;container=1;collapsible=1;childLayout=tableLayout;fixedRows=1;rowLines=0;fontStyle=1;align=center;resizeLast=1;" parent="1" vertex="1">
          <mxGeometry x="560" y="380" width="230" height="210" as="geometry">
            <mxRectangle x="630" y="120" width="130" height="30" as="alternateBounds" />
          </mxGeometry>
        </mxCell>
        <mxCell id="ff4JJlkgA0-0qlCMYCa7-117" value="" style="shape=partialRectangle;collapsible=0;dropTarget=0;pointerEvents=0;fillColor=none;top=0;left=0;bottom=1;right=0;points=[[0,0.5],[1,0.5]];portConstraint=eastwest;" parent="ff4JJlkgA0-0qlCMYCa7-116" vertex="1">
          <mxGeometry y="30" width="230" height="30" as="geometry" />
        </mxCell>
        <mxCell id="ff4JJlkgA0-0qlCMYCa7-118" value="PK" style="shape=partialRectangle;connectable=0;fillColor=none;top=0;left=0;bottom=0;right=0;fontStyle=1;overflow=hidden;" parent="ff4JJlkgA0-0qlCMYCa7-117" vertex="1">
          <mxGeometry width="30" height="30" as="geometry">
            <mxRectangle width="30" height="30" as="alternateBounds" />
          </mxGeometry>
        </mxCell>
        <mxCell id="ff4JJlkgA0-0qlCMYCa7-119" value="AdminId" style="shape=partialRectangle;connectable=0;fillColor=none;top=0;left=0;bottom=0;right=0;align=left;spacingLeft=6;fontStyle=5;overflow=hidden;" parent="ff4JJlkgA0-0qlCMYCa7-117" vertex="1">
          <mxGeometry x="30" width="200" height="30" as="geometry">
            <mxRectangle width="200" height="30" as="alternateBounds" />
          </mxGeometry>
        </mxCell>
        <mxCell id="ff4JJlkgA0-0qlCMYCa7-120" value="" style="shape=partialRectangle;collapsible=0;dropTarget=0;pointerEvents=0;fillColor=none;top=0;left=0;bottom=0;right=0;points=[[0,0.5],[1,0.5]];portConstraint=eastwest;" parent="ff4JJlkgA0-0qlCMYCa7-116" vertex="1">
          <mxGeometry y="60" width="230" height="30" as="geometry" />
        </mxCell>
        <mxCell id="ff4JJlkgA0-0qlCMYCa7-121" value="" style="shape=partialRectangle;connectable=0;fillColor=none;top=0;left=0;bottom=0;right=0;editable=1;overflow=hidden;" parent="ff4JJlkgA0-0qlCMYCa7-120" vertex="1">
          <mxGeometry width="30" height="30" as="geometry">
            <mxRectangle width="30" height="30" as="alternateBounds" />
          </mxGeometry>
        </mxCell>
        <mxCell id="ff4JJlkgA0-0qlCMYCa7-122" value="Name:nvarchar(30)" style="shape=partialRectangle;connectable=0;fillColor=none;top=0;left=0;bottom=0;right=0;align=left;spacingLeft=6;overflow=hidden;" parent="ff4JJlkgA0-0qlCMYCa7-120" vertex="1">
          <mxGeometry x="30" width="200" height="30" as="geometry">
            <mxRectangle width="200" height="30" as="alternateBounds" />
          </mxGeometry>
        </mxCell>
        <mxCell id="ff4JJlkgA0-0qlCMYCa7-123" value="" style="shape=partialRectangle;collapsible=0;dropTarget=0;pointerEvents=0;fillColor=none;top=0;left=0;bottom=0;right=0;points=[[0,0.5],[1,0.5]];portConstraint=eastwest;" parent="ff4JJlkgA0-0qlCMYCa7-116" vertex="1">
          <mxGeometry y="90" width="230" height="30" as="geometry" />
        </mxCell>
        <mxCell id="ff4JJlkgA0-0qlCMYCa7-124" value="" style="shape=partialRectangle;connectable=0;fillColor=none;top=0;left=0;bottom=0;right=0;editable=1;overflow=hidden;" parent="ff4JJlkgA0-0qlCMYCa7-123" vertex="1">
          <mxGeometry width="30" height="30" as="geometry">
            <mxRectangle width="30" height="30" as="alternateBounds" />
          </mxGeometry>
        </mxCell>
        <mxCell id="ff4JJlkgA0-0qlCMYCa7-125" value="Email:nvarchar(40)" style="shape=partialRectangle;connectable=0;fillColor=none;top=0;left=0;bottom=0;right=0;align=left;spacingLeft=6;overflow=hidden;" parent="ff4JJlkgA0-0qlCMYCa7-123" vertex="1">
          <mxGeometry x="30" width="200" height="30" as="geometry">
            <mxRectangle width="200" height="30" as="alternateBounds" />
          </mxGeometry>
        </mxCell>
        <mxCell id="ff4JJlkgA0-0qlCMYCa7-126" value="" style="shape=partialRectangle;collapsible=0;dropTarget=0;pointerEvents=0;fillColor=none;top=0;left=0;bottom=0;right=0;points=[[0,0.5],[1,0.5]];portConstraint=eastwest;" parent="ff4JJlkgA0-0qlCMYCa7-116" vertex="1">
          <mxGeometry y="120" width="230" height="30" as="geometry" />
        </mxCell>
        <mxCell id="ff4JJlkgA0-0qlCMYCa7-127" value="" style="shape=partialRectangle;connectable=0;top=0;left=0;bottom=0;right=0;editable=1;overflow=hidden;" parent="ff4JJlkgA0-0qlCMYCa7-126" vertex="1">
          <mxGeometry width="30" height="30" as="geometry">
            <mxRectangle width="30" height="30" as="alternateBounds" />
          </mxGeometry>
        </mxCell>
        <mxCell id="ff4JJlkgA0-0qlCMYCa7-128" value="Phone number:varchar(15)" style="shape=partialRectangle;connectable=0;fillColor=none;top=0;left=0;bottom=0;right=0;align=left;spacingLeft=6;overflow=hidden;" parent="ff4JJlkgA0-0qlCMYCa7-126" vertex="1">
          <mxGeometry x="30" width="200" height="30" as="geometry">
            <mxRectangle width="200" height="30" as="alternateBounds" />
          </mxGeometry>
        </mxCell>
        <mxCell id="ff4JJlkgA0-0qlCMYCa7-132" value="" style="shape=partialRectangle;collapsible=0;dropTarget=0;pointerEvents=0;fillColor=none;top=0;left=0;bottom=0;right=0;points=[[0,0.5],[1,0.5]];portConstraint=eastwest;" parent="ff4JJlkgA0-0qlCMYCa7-116" vertex="1">
          <mxGeometry y="150" width="230" height="30" as="geometry" />
        </mxCell>
        <mxCell id="ff4JJlkgA0-0qlCMYCa7-133" value="" style="shape=partialRectangle;connectable=0;top=0;left=0;bottom=0;right=0;editable=1;overflow=hidden;" parent="ff4JJlkgA0-0qlCMYCa7-132" vertex="1">
          <mxGeometry width="30" height="30" as="geometry">
            <mxRectangle width="30" height="30" as="alternateBounds" />
          </mxGeometry>
        </mxCell>
        <mxCell id="ff4JJlkgA0-0qlCMYCa7-134" value="Candidate_InformationID:int" style="shape=partialRectangle;connectable=0;fillColor=none;top=0;left=0;bottom=0;right=0;align=left;spacingLeft=6;overflow=hidden;" parent="ff4JJlkgA0-0qlCMYCa7-132" vertex="1">
          <mxGeometry x="30" width="200" height="30" as="geometry">
            <mxRectangle width="200" height="30" as="alternateBounds" />
          </mxGeometry>
        </mxCell>
        <mxCell id="ff4JJlkgA0-0qlCMYCa7-141" style="edgeStyle=orthogonalEdgeStyle;rounded=0;orthogonalLoop=1;jettySize=auto;html=1;exitX=1;exitY=0.5;exitDx=0;exitDy=0;" parent="ff4JJlkgA0-0qlCMYCa7-116" source="ff4JJlkgA0-0qlCMYCa7-142" target="ff4JJlkgA0-0qlCMYCa7-142" edge="1">
          <mxGeometry relative="1" as="geometry" />
        </mxCell>
        <mxCell id="ff4JJlkgA0-0qlCMYCa7-142" value="" style="shape=partialRectangle;collapsible=0;dropTarget=0;pointerEvents=0;fillColor=none;top=0;left=0;bottom=0;right=0;points=[[0,0.5],[1,0.5]];portConstraint=eastwest;" parent="ff4JJlkgA0-0qlCMYCa7-116" vertex="1">
          <mxGeometry y="180" width="230" height="30" as="geometry" />
        </mxCell>
        <mxCell id="ff4JJlkgA0-0qlCMYCa7-143" value="FK" style="shape=partialRectangle;connectable=0;fillColor=none;top=0;left=0;bottom=0;right=0;editable=1;overflow=hidden;" parent="ff4JJlkgA0-0qlCMYCa7-142" vertex="1">
          <mxGeometry width="30" height="30" as="geometry">
            <mxRectangle width="30" height="30" as="alternateBounds" />
          </mxGeometry>
        </mxCell>
        <mxCell id="ff4JJlkgA0-0qlCMYCa7-144" value="User_InformationID:int" style="shape=partialRectangle;connectable=0;fillColor=none;top=0;left=0;bottom=0;right=0;align=left;spacingLeft=6;overflow=hidden;" parent="ff4JJlkgA0-0qlCMYCa7-142" vertex="1">
          <mxGeometry x="30" width="200" height="30" as="geometry">
            <mxRectangle width="200" height="30" as="alternateBounds" />
          </mxGeometry>
        </mxCell>
        <mxCell id="ff4JJlkgA0-0qlCMYCa7-145" value="" style="edgeStyle=orthogonalEdgeStyle;fontSize=12;html=1;endArrow=ERzeroToMany;startArrow=ERmandOne;rounded=0;exitX=1;exitY=0.5;exitDx=0;exitDy=0;entryX=1;entryY=0.5;entryDx=0;entryDy=0;" parent="1" source="ff4JJlkgA0-0qlCMYCa7-113" target="ff4JJlkgA0-0qlCMYCa7-8" edge="1">
          <mxGeometry width="100" height="100" relative="1" as="geometry">
            <mxPoint x="230" y="775" as="sourcePoint" />
            <mxPoint x="360" y="280" as="targetPoint" />
            <Array as="points">
              <mxPoint x="420" y="745" />
              <mxPoint x="420" y="485" />
            </Array>
          </mxGeometry>
        </mxCell>
        <mxCell id="q5peEvXd3cXD_htm8zkx-4" value="Application" style="shape=table;startSize=30;container=1;collapsible=1;childLayout=tableLayout;fixedRows=1;rowLines=0;fontStyle=1;align=center;resizeLast=1;" parent="1" vertex="1">
          <mxGeometry x="850" y="60" width="190" height="250.00000000000023" as="geometry">
            <mxRectangle x="40" y="280" width="90" height="30" as="alternateBounds" />
          </mxGeometry>
        </mxCell>
        <mxCell id="q5peEvXd3cXD_htm8zkx-5" value="" style="shape=partialRectangle;collapsible=0;dropTarget=0;pointerEvents=0;fillColor=none;top=0;left=0;bottom=1;right=0;points=[[0,0.5],[1,0.5]];portConstraint=eastwest;" parent="q5peEvXd3cXD_htm8zkx-4" vertex="1">
          <mxGeometry y="30" width="190" height="30" as="geometry" />
        </mxCell>
        <mxCell id="q5peEvXd3cXD_htm8zkx-6" value="PK" style="shape=partialRectangle;connectable=0;fillColor=none;top=0;left=0;bottom=0;right=0;fontStyle=1;overflow=hidden;" parent="q5peEvXd3cXD_htm8zkx-5" vertex="1">
          <mxGeometry width="30" height="30" as="geometry">
            <mxRectangle width="30" height="30" as="alternateBounds" />
          </mxGeometry>
        </mxCell>
        <mxCell id="q5peEvXd3cXD_htm8zkx-7" value="ApplicationID" style="shape=partialRectangle;connectable=0;fillColor=none;top=0;left=0;bottom=0;right=0;align=left;spacingLeft=6;fontStyle=5;overflow=hidden;" parent="q5peEvXd3cXD_htm8zkx-5" vertex="1">
          <mxGeometry x="30" width="160" height="30" as="geometry">
            <mxRectangle width="160" height="30" as="alternateBounds" />
          </mxGeometry>
        </mxCell>
        <mxCell id="q5peEvXd3cXD_htm8zkx-8" value="" style="shape=partialRectangle;collapsible=0;dropTarget=0;pointerEvents=0;fillColor=none;top=0;left=0;bottom=0;right=0;points=[[0,0.5],[1,0.5]];portConstraint=eastwest;" parent="q5peEvXd3cXD_htm8zkx-4" vertex="1">
          <mxGeometry y="60" width="190" height="30" as="geometry" />
        </mxCell>
        <mxCell id="q5peEvXd3cXD_htm8zkx-9" value="" style="shape=partialRectangle;connectable=0;fillColor=none;top=0;left=0;bottom=0;right=0;editable=1;overflow=hidden;" parent="q5peEvXd3cXD_htm8zkx-8" vertex="1">
          <mxGeometry width="30" height="30" as="geometry">
            <mxRectangle width="30" height="30" as="alternateBounds" />
          </mxGeometry>
        </mxCell>
        <mxCell id="q5peEvXd3cXD_htm8zkx-10" value="Name:nvarchar(30)" style="shape=partialRectangle;connectable=0;fillColor=none;top=0;left=0;bottom=0;right=0;align=left;spacingLeft=6;overflow=hidden;" parent="q5peEvXd3cXD_htm8zkx-8" vertex="1">
          <mxGeometry x="30" width="160" height="30" as="geometry">
            <mxRectangle width="160" height="30" as="alternateBounds" />
          </mxGeometry>
        </mxCell>
        <mxCell id="q5peEvXd3cXD_htm8zkx-11" value="" style="shape=partialRectangle;collapsible=0;dropTarget=0;pointerEvents=0;fillColor=none;top=0;left=0;bottom=0;right=0;points=[[0,0.5],[1,0.5]];portConstraint=eastwest;" parent="q5peEvXd3cXD_htm8zkx-4" vertex="1">
          <mxGeometry y="90" width="190" height="30" as="geometry" />
        </mxCell>
        <mxCell id="q5peEvXd3cXD_htm8zkx-12" value="" style="shape=partialRectangle;connectable=0;fillColor=none;top=0;left=0;bottom=0;right=0;editable=1;overflow=hidden;" parent="q5peEvXd3cXD_htm8zkx-11" vertex="1">
          <mxGeometry width="30" height="30" as="geometry">
            <mxRectangle width="30" height="30" as="alternateBounds" />
          </mxGeometry>
        </mxCell>
        <mxCell id="q5peEvXd3cXD_htm8zkx-13" value="Date of birth:date" style="shape=partialRectangle;connectable=0;fillColor=none;top=0;left=0;bottom=0;right=0;align=left;spacingLeft=6;overflow=hidden;" parent="q5peEvXd3cXD_htm8zkx-11" vertex="1">
          <mxGeometry x="30" width="160" height="30" as="geometry">
            <mxRectangle width="160" height="30" as="alternateBounds" />
          </mxGeometry>
        </mxCell>
        <mxCell id="JNZhqq-527HxPfOMu8t8-21" value="" style="shape=partialRectangle;collapsible=0;dropTarget=0;pointerEvents=0;fillColor=none;top=0;left=0;bottom=0;right=0;points=[[0,0.5],[1,0.5]];portConstraint=eastwest;" parent="q5peEvXd3cXD_htm8zkx-4" vertex="1">
          <mxGeometry y="120" width="190" height="30" as="geometry" />
        </mxCell>
        <mxCell id="JNZhqq-527HxPfOMu8t8-22" value="FK" style="shape=partialRectangle;connectable=0;fillColor=none;top=0;left=0;bottom=0;right=0;editable=1;overflow=hidden;" parent="JNZhqq-527HxPfOMu8t8-21" vertex="1">
          <mxGeometry width="30" height="30" as="geometry">
            <mxRectangle width="30" height="30" as="alternateBounds" />
          </mxGeometry>
        </mxCell>
        <mxCell id="JNZhqq-527HxPfOMu8t8-23" value="Terms_ParticipationID:int" style="shape=partialRectangle;connectable=0;fillColor=none;top=0;left=0;bottom=0;right=0;align=left;spacingLeft=6;overflow=hidden;" parent="JNZhqq-527HxPfOMu8t8-21" vertex="1">
          <mxGeometry x="30" width="160" height="30" as="geometry">
            <mxRectangle width="160" height="30" as="alternateBounds" />
          </mxGeometry>
        </mxCell>
        <mxCell id="JNZhqq-527HxPfOMu8t8-16" value="" style="shape=partialRectangle;collapsible=0;dropTarget=0;pointerEvents=0;fillColor=none;top=0;left=0;bottom=0;right=0;points=[[0,0.5],[1,0.5]];portConstraint=eastwest;" parent="q5peEvXd3cXD_htm8zkx-4" vertex="1">
          <mxGeometry y="150" width="190" height="30" as="geometry" />
        </mxCell>
        <mxCell id="JNZhqq-527HxPfOMu8t8-17" value="FK" style="shape=partialRectangle;connectable=0;fillColor=none;top=0;left=0;bottom=0;right=0;editable=1;overflow=hidden;" parent="JNZhqq-527HxPfOMu8t8-16" vertex="1">
          <mxGeometry width="30" height="30" as="geometry">
            <mxRectangle width="30" height="30" as="alternateBounds" />
          </mxGeometry>
        </mxCell>
        <mxCell id="JNZhqq-527HxPfOMu8t8-18" value="Candidate_InformationID:int" style="shape=partialRectangle;connectable=0;fillColor=none;top=0;left=0;bottom=0;right=0;align=left;spacingLeft=6;overflow=hidden;" parent="JNZhqq-527HxPfOMu8t8-16" vertex="1">
          <mxGeometry x="30" width="160" height="30" as="geometry">
            <mxRectangle width="160" height="30" as="alternateBounds" />
          </mxGeometry>
        </mxCell>
        <mxCell id="QtWzLYrEmRETvIJKA0Xu-10" value="" style="shape=partialRectangle;collapsible=0;dropTarget=0;pointerEvents=0;fillColor=none;top=0;left=0;bottom=0;right=0;points=[[0,0.5],[1,0.5]];portConstraint=eastwest;" parent="q5peEvXd3cXD_htm8zkx-4" vertex="1">
          <mxGeometry y="180" width="190" height="30" as="geometry" />
        </mxCell>
        <mxCell id="QtWzLYrEmRETvIJKA0Xu-11" value="FK" style="shape=partialRectangle;connectable=0;fillColor=none;top=0;left=0;bottom=0;right=0;editable=1;overflow=hidden;" parent="QtWzLYrEmRETvIJKA0Xu-10" vertex="1">
          <mxGeometry width="30" height="30" as="geometry">
            <mxRectangle width="30" height="30" as="alternateBounds" />
          </mxGeometry>
        </mxCell>
        <mxCell id="QtWzLYrEmRETvIJKA0Xu-12" value="AdminId:int" style="shape=partialRectangle;connectable=0;fillColor=none;top=0;left=0;bottom=0;right=0;align=left;spacingLeft=6;overflow=hidden;" parent="QtWzLYrEmRETvIJKA0Xu-10" vertex="1">
          <mxGeometry x="30" width="160" height="30" as="geometry">
            <mxRectangle width="160" height="30" as="alternateBounds" />
          </mxGeometry>
        </mxCell>
        <mxCell id="QtWzLYrEmRETvIJKA0Xu-15" value="" style="shape=partialRectangle;collapsible=0;dropTarget=0;pointerEvents=0;fillColor=none;top=0;left=0;bottom=0;right=0;points=[[0,0.5],[1,0.5]];portConstraint=eastwest;" parent="q5peEvXd3cXD_htm8zkx-4" vertex="1">
          <mxGeometry y="210" width="190" height="30" as="geometry" />
        </mxCell>
        <mxCell id="QtWzLYrEmRETvIJKA0Xu-16" value="FK" style="shape=partialRectangle;connectable=0;fillColor=none;top=0;left=0;bottom=0;right=0;editable=1;overflow=hidden;" parent="QtWzLYrEmRETvIJKA0Xu-15" vertex="1">
          <mxGeometry width="30" height="30" as="geometry">
            <mxRectangle width="30" height="30" as="alternateBounds" />
          </mxGeometry>
        </mxCell>
        <mxCell id="QtWzLYrEmRETvIJKA0Xu-17" value="CandidateID:int" style="shape=partialRectangle;connectable=0;fillColor=none;top=0;left=0;bottom=0;right=0;align=left;spacingLeft=6;overflow=hidden;" parent="QtWzLYrEmRETvIJKA0Xu-15" vertex="1">
          <mxGeometry x="30" width="160" height="30" as="geometry">
            <mxRectangle width="160" height="30" as="alternateBounds" />
          </mxGeometry>
        </mxCell>
        <mxCell id="QtWzLYrEmRETvIJKA0Xu-9" value="" style="edgeStyle=entityRelationEdgeStyle;fontSize=12;html=1;endArrow=ERzeroToMany;startArrow=ERmandOne;rounded=0;jumpStyle=arc;jumpSize=11;entryX=0;entryY=0.5;entryDx=0;entryDy=0;exitX=1;exitY=0.5;exitDx=0;exitDy=0;" parent="1" source="ff4JJlkgA0-0qlCMYCa7-117" target="QtWzLYrEmRETvIJKA0Xu-10" edge="1">
          <mxGeometry width="100" height="100" relative="1" as="geometry">
            <mxPoint x="720" y="380" as="sourcePoint" />
            <mxPoint x="870" y="700" as="targetPoint" />
          </mxGeometry>
        </mxCell>
        <mxCell id="QtWzLYrEmRETvIJKA0Xu-13" value="" style="edgeStyle=entityRelationEdgeStyle;fontSize=12;html=1;endArrow=ERoneToMany;rounded=0;jumpStyle=arc;jumpSize=11;exitX=0;exitY=0.5;exitDx=0;exitDy=0;" parent="1" source="ff4JJlkgA0-0qlCMYCa7-117" target="q5peEvXd3cXD_htm8zkx-1" edge="1">
          <mxGeometry width="100" height="100" relative="1" as="geometry">
            <mxPoint x="310" y="650" as="sourcePoint" />
            <mxPoint x="410" y="550" as="targetPoint" />
          </mxGeometry>
        </mxCell>
        <mxCell id="QtWzLYrEmRETvIJKA0Xu-19" value="" style="edgeStyle=orthogonalEdgeStyle;fontSize=12;html=1;endArrow=ERzeroToMany;startArrow=ERmandOne;rounded=0;jumpStyle=arc;jumpSize=11;entryX=1;entryY=0.5;entryDx=0;entryDy=0;exitX=0;exitY=0.5;exitDx=0;exitDy=0;" parent="1" source="ff4JJlkgA0-0qlCMYCa7-142" target="ff4JJlkgA0-0qlCMYCa7-2" edge="1">
          <mxGeometry width="100" height="100" relative="1" as="geometry">
            <mxPoint x="730" y="570" as="sourcePoint" />
            <mxPoint x="820" y="780" as="targetPoint" />
            <Array as="points">
              <mxPoint x="520" y="575" />
              <mxPoint x="520" y="425" />
            </Array>
          </mxGeometry>
        </mxCell>
        <mxCell id="JNZhqq-527HxPfOMu8t8-19" value="" style="edgeStyle=entityRelationEdgeStyle;fontSize=12;html=1;endArrow=ERzeroToMany;startArrow=ERmandOne;rounded=0;exitX=0;exitY=0.5;exitDx=0;exitDy=0;entryX=1;entryY=0.5;entryDx=0;entryDy=0;" parent="1" source="ff4JJlkgA0-0qlCMYCa7-12" target="JNZhqq-527HxPfOMu8t8-16" edge="1">
          <mxGeometry width="100" height="100" relative="1" as="geometry">
            <mxPoint x="1120" y="230" as="sourcePoint" />
            <mxPoint x="1220" y="130" as="targetPoint" />
          </mxGeometry>
        </mxCell>
        <mxCell id="JNZhqq-527HxPfOMu8t8-24" value="" style="edgeStyle=entityRelationEdgeStyle;fontSize=12;html=1;endArrow=ERzeroToMany;startArrow=ERmandOne;rounded=0;exitX=1;exitY=0.5;exitDx=0;exitDy=0;entryX=0;entryY=0.5;entryDx=0;entryDy=0;" parent="1" source="ff4JJlkgA0-0qlCMYCa7-43" target="JNZhqq-527HxPfOMu8t8-21" edge="1">
          <mxGeometry width="100" height="100" relative="1" as="geometry">
            <mxPoint x="520" y="220" as="sourcePoint" />
            <mxPoint x="620" y="120" as="targetPoint" />
          </mxGeometry>
        </mxCell>
        <mxCell id="JNZhqq-527HxPfOMu8t8-28" value="" style="edgeStyle=orthogonalEdgeStyle;fontSize=12;html=1;endArrow=ERzeroToMany;startArrow=ERmandOne;rounded=0;entryX=1;entryY=0.5;entryDx=0;entryDy=0;exitX=1;exitY=0.5;exitDx=0;exitDy=0;" parent="1" source="ff4JJlkgA0-0qlCMYCa7-132" target="ff4JJlkgA0-0qlCMYCa7-12" edge="1">
          <mxGeometry width="100" height="100" relative="1" as="geometry">
            <mxPoint x="1100" y="570" as="sourcePoint" />
            <mxPoint x="1370" y="580" as="targetPoint" />
            <Array as="points">
              <mxPoint x="830" y="545" />
              <mxPoint x="830" y="930" />
              <mxPoint x="1420" y="930" />
              <mxPoint x="1420" y="225" />
            </Array>
          </mxGeometry>
        </mxCell>
        <mxCell id="JNZhqq-527HxPfOMu8t8-29" value="" style="edgeStyle=entityRelationEdgeStyle;fontSize=12;html=1;endArrow=ERzeroToMany;startArrow=ERmandOne;rounded=0;" parent="1" source="QtWzLYrEmRETvIJKA0Xu-15" target="ff4JJlkgA0-0qlCMYCa7-91" edge="1">
          <mxGeometry width="100" height="100" relative="1" as="geometry">
            <mxPoint x="1080" y="330" as="sourcePoint" />
            <mxPoint x="990" y="420" as="targetPoint" />
          </mxGeometry>
        </mxCell>
        <mxCell id="JNZhqq-527HxPfOMu8t8-35" value="" style="edgeStyle=orthogonalEdgeStyle;fontSize=12;html=1;endArrow=ERoneToMany;startArrow=ERmandOne;rounded=0;" parent="1" source="ff4JJlkgA0-0qlCMYCa7-91" target="2Q01-_YqrM35rokOqB0F-4" edge="1">
          <mxGeometry width="100" height="100" relative="1" as="geometry">
            <mxPoint x="930" y="750" as="sourcePoint" />
            <mxPoint x="1030" y="650" as="targetPoint" />
            <Array as="points">
              <mxPoint x="880" y="445" />
              <mxPoint x="880" y="875" />
            </Array>
          </mxGeometry>
        </mxCell>
      </root>
    </mxGraphModel>
  </diagram>
</mxfile>
